<?xml version="1.0" encoding="utf-8"?>
<!-- Generator: Adobe Illustrator 15.0.0, SVG Export Plug-In . SVG Version: 6.00 Build 0)  -->
<!DOCTYPE svg PUBLIC "-//W3C//DTD SVG 1.1//EN" "http://www.w3.org/Graphics/SVG/1.1/DTD/svg11.dtd">
<svg version="1.1" id="Layer_1" xmlns="http://www.w3.org/2000/svg" xmlns:xlink="http://www.w3.org/1999/xlink" x="0px" y="0px"
	 width="31px" height="31px" viewBox="0 0 31 31" enable-background="new 0 0 31 31" xml:space="preserve">
<path fill="#FFFFFF" d="M15.676,2.758c4.076,0,7.654,3.339,7.654,7.146c0,3.945-3.18,9.099-7.654,16.15
	c-4.473-7.052-7.654-12.206-7.654-16.15C8.022,6.098,11.599,2.758,15.676,2.758 M15.676,0.207c-5.355,0-10.205,4.34-10.205,9.697
	c0,5.354,4.425,11.749,10.205,20.916c5.781-9.167,10.206-15.563,10.206-20.916C25.882,4.547,21.032,0.207,15.676,0.207z
	 M15.676,14.238c-2.114,0-3.827-1.713-3.827-3.827c0-2.115,1.712-3.827,3.827-3.827c2.115,0,3.827,1.712,3.827,3.827
	C19.503,12.525,17.79,14.238,15.676,14.238z"/>
</svg>
